<svg width="36" height="36" viewBox="0 0 36 36" fill="none" xmlns="http://www.w3.org/2000/svg">
<path d="M16 11H11C9.89543 11 9 11.8954 9 13V16C9.51184 16 10.0237 16.1953 10.4142 16.5858C11.1953 17.3668 11.1953 18.6332 10.4142 19.4142C10.0237 19.8047 9.51184 20 9 20V23C9 24.1046 9.89543 25 11 25H16M16 11H25C26.1046 11 27 11.8954 27 13V16C26.4882 16 25.9763 16.1953 25.5858 16.5858C24.8047 17.3668 24.8047 18.6332 25.5858 19.4142C25.9763 19.8047 26.4882 20 27 20C27 20.75 27 21.8787 27 23C27 24.1046 26.1046 25 25 25H16M16 11V25" stroke="white" stroke-width="2" stroke-linejoin="round"/>
</svg>
