<svg width="58" height="53" viewBox="0 0 58 53" fill="none" xmlns="http://www.w3.org/2000/svg">
<path d="M27 20H22C20.8954 20 20 20.8954 20 22V25C20.5118 25 21.0237 25.1953 21.4142 25.5858C22.1953 26.3668 22.1953 27.6332 21.4142 28.4142C21.0237 28.8047 20.5118 29 20 29V32C20 33.1046 20.8954 34 22 34H27M27 20H36C37.1046 20 38 20.8954 38 22V25C37.4882 25 36.9763 25.1953 36.5858 25.5858C35.8047 26.3668 35.8047 27.6332 36.5858 28.4142C36.9763 28.8047 37.4882 29 38 29C38 29.75 38 30.8787 38 32C38 33.1046 37.1046 34 36 34H27M27 20V34" stroke="white" stroke-width="2" stroke-linejoin="round"/>
</svg>
