<svg width="40" height="40" viewBox="0 0 40 40" fill="none" xmlns="http://www.w3.org/2000/svg">
<path fill-rule="evenodd" clip-rule="evenodd" d="M20 0C8.9543 0 0 8.9543 0 20C0 31.0457 8.9543 40 20 40C31.0457 40 40 31.0457 40 20C40 8.9543 31.0457 0 20 0ZM14.6668 28C13.1942 28 12.0002 26.806 12.0002 25.3333C12.0002 23.8607 13.1942 22.6667 14.6668 22.6667C16.1395 22.6667 17.3335 23.8607 17.3335 25.3333C17.3335 26.806 16.1395 28 14.6668 28ZM30.6667 28C30.6667 17.7073 22.2928 9.33333 12.0002 9.33333V12.8887C20.3328 12.8887 27.1114 19.6673 27.1114 28H30.6667ZM12 15.5553C18.8619 15.5553 24.4445 21.138 24.4445 28H20.8892C20.8892 23.0987 16.9013 19.1113 12 19.1113V15.5553Z" fill="#E00E4B"/>
</svg>
